PathFileType	4	(X/Y/Z)	C:/Users/beibeiliu/ov580/test_trc\sequence.5_training_dense_left.trc
DataRate	CameraRate	NumFrames	NumMarkers	Units	OrigDataRate	OrigDataStartFrame	OrigNumFrames
120	120	20	19	mm	120	26	100
Frame#	Time	ThumbCMC			ThumbMCP			ThumbIP			ThumbTip			IndexMCP			IndexPIP			IndexTip			MiddleMCP			MiddlePIP			MiddleTip			RingMCP			RingPIP			RingTip			PinkyMCP			PinkyPIP			PinkyTip			BackHand1			BackHand2			BackHand3	
		X0	Y0	Z0	X1	Y1	Z1	X2	Y2	Z2	X3	Y3	Z3	X4	Y4	Z4	X5	Y5	Z5	X6	Y6	Z6	X7	Y7	Z7	X8	Y8	Z8	X9	Y9	Z9	X10	Y10	Z10	X11	Y11	Z11	X12	Y12	Z12	X13	Y13	Z13	X14	Y14	Z14	X15	Y15	Z15	X16	Y16	Z16	X17	Y17	Z17	X18	Y18	Z18	
25	0.208333	-163.65	55.0624	82.7228	-141.341	38.3315	60.6904	-138.565	22.9978	38.7207	-141.778	5.18668	24.3976	-176.22	55.5054	14.2238	-165.145	45.8809	-5.89092	-152.529	33.2877	-20.9448	-181.34	34.0092	14.1295	-158.106	14.5196	15.8964	-156.006	15.6881	48.716	-187.808	13.9749	26.2879	-163.833	2.92349	39.9779	-166.347	13.8978	66.6865	-193.019	6.17221	38.9687	-172.86	0.588977	50.997	-174.215	16.7967	70.3027	-214.358	40.8144	66.7865	-212.557	48.6413	89.4187	-196.536	62.418	75.9535	
26	0.216667	-159.196	59.6405	81.2283	-140.54	41.0086	59.9804	-140.282	26.9342	41.0112	-144.009	9.96791	27.3894	-168.2	59.9506	19.0805	-161.237	45.3755	-0.313802	-147.703	33.3073	-13.0779	-179.874	34.6078	15.3189	-156.443	19.3249	15.237	-150.374	18.2464	46.2882	-181.774	20.3894	25.6029	-159.717	9.14155	38.7177	-161.209	21.1593	65.1039	-193.514	7.65445	39.9663	-169.694	6.16026	50.0616	-169.223	19.3196	70.3	-211.378	41.9203	62.2298	-214.384	48.2922	92.982	-193.549	66.1347	74.9347	
27	0.225	-161.892	62.6613	81.9662	-137.881	47.5669	62.4398	-134.688	33.192	37.7858	-136.197	14.5586	23.3515	-172.307	62.9651	19.7507	-158.199	55.238	-3.83199	-148.235	40.1032	-16.6215	-174.594	41.7336	14.2594	-154.339	20.9533	15.629	-147.524	26.4893	49.3555	-181.925	22.0099	26.4787	-156.835	12.51	39.6485	-157.668	20.6419	63.198	-190.381	9.21381	38.7407	-167.795	8.08334	46.0833	-167.711	22.5868	68.5297	-206.489	46.5604	64.3132	-210.921	47.9816	92.4353	-194.453	67.2097	72.668	
28	0.233333	-157.42	67.9758	79.8485	-139.288	51.0587	63.7134	-133.104	37.2413	42.2369	-133.541	20.4553	27.7375	-171.434	69.9026	17.1869	-162.474	63.1006	-3.71768	-145.881	48.9269	-23.3954	-173.632	47.7224	17.0363	-148.407	27.5577	15.5544	-145.886	25.746	44.5771	-174.942	25.9064	25.65	-151.45	18.7492	37.8546	-153.123	26.3712	62.2066	-185.189	15.8742	37.3588	-162.582	10.7416	49.1729	-164.088	25.5272	70.3713	-207.734	46.0108	60.3179	-208.698	51.8466	92.7792	-194.402	70.9129	75.227	
29	0.241667	-156.456	68.8385	84.8064	-137.928	52.5132	63.2176	-125.409	41.3309	44.5995	-126.657	21.8412	28.3525	-168.723	70.4771	20.0397	-155.784	65.6654	-2.68533	-136.766	53.7676	-19.2479	-171.727	45.5192	15.038	-146.657	28.8096	15.8031	-142.555	30.926	49.3952	-172.228	28.6282	26.8301	-150.161	19.3677	38.4884	-152.112	24.4155	64.5944	-180.947	18.8504	38.5032	-158.395	13.2463	50.0072	-161.609	28.7371	70.2678	-202.359	51.2144	64.3841	-205.092	53.2454	89.6652	-191.158	73.5956	75.8636	
30	0.25	-159.297	68.4479	83.3018	-133.98	55.8246	64.3438	-128.852	42.4515	49.2255	-127.66	24.8371	30.3325	-159.198	71.8524	18.2924	-149.711	60.7536	3.19215	-129.166	45.2922	-11.7383	-170.089	47.5005	19.0081	-144.636	28.6104	18.0484	-142.615	28.4387	48.9822	-169.819	28.4604	26.2129	-148.579	17.4008	41.5238	-150.268	30.2409	65.558	-178.063	16.7743	39.1572	-158.761	12.1755	50.4116	-160.661	29.454	74.916	-205.347	48.7813	60.8592	-207.535	52.3969	90.4874	-192.373	72.9064	75.1214	
31	0.258333	-159.738	72.0638	86.8628	-132.958	59.4946	67.2488	-128.595	47.9007	50.1737	-121.73	31.6665	30.8567	-160.566	70.8304	19.4001	-145.37	64.3092	5.04019	-126.592	50.98	-7.48971	-165.438	50.5912	16.6712	-142.125	34.0059	20.0821	-139.252	34.6758	52.0822	-172.096	29.9065	28.8536	-149.172	22.1783	37.3255	-149.241	30.1797	65.6563	-181.212	17.9117	40.1672	-157.112	12.9969	51.8989	-157.257	26.7583	71.2649	-204.832	51.249	62.4055	-206.532	54.8829	91.7248	-189.391	76.9272	75.2418	
32	0.266667	-160.125	73.1922	84.9199	-136.078	62.1541	67.1292	-125.767	50.7479	47.8677	-125.522	34.421	30.3913	-166.528	77.2165	23.0917	-154.263	68.137	0.544393	-139.086	57.3931	-15.7568	-170.19	50.5477	19.2749	-144.206	34.4974	17.3952	-139.786	35.8915	49.8217	-171.895	33.7809	27.5354	-149.268	22.4977	36.0308	-148.072	29.4583	63.446	-180.11	16.9819	39.4677	-156.456	18.0176	48.1146	-158.05	30.9268	71.5304	-205.82	49.8088	61.9079	-206.54	54.1167	92.1055	-193.763	71.3016	76.4747	
33	0.275	-159.141	77.0285	84.3191	-135.569	64.3929	63.3545	-127.08	51.1652	41.5395	-125.652	36.5145	29.174	-173.784	75.0696	20.8388	-166.348	71.4244	-2.9088	-153.077	65.456	-23.3169	-168.743	51.139	16.6868	-145.169	35.6259	16.9463	-139.501	35.7672	47.6928	-170.162	33.1889	26.6356	-149.34	24.3556	36.3967	-149.06	31.7245	64.9877	-176.885	16.2256	37.2489	-156.481	19.3314	47.9515	-155.106	28.7677	70.908	-204.595	52.3054	61.566	-207.469	54.3641	87.4261	-195.96	73.5667	73.9981	
34	0.283333	-162.893	78.3654	83.0373	-136.126	68.8737	63.8168	-129.159	57.1183	44.4933	-127.167	40.5124	27.1893	-176.24	78.0914	20.6311	-168.805	72.437	-7.10839	-161.025	68.3951	-23.5951	-168.613	51.9281	14.9423	-143.287	37.0242	19.6076	-141.905	41.4726	51.9427	-171.669	31.96	26.7321	-145.033	29.8607	38.0837	-148.675	36.3951	65.9265	-179.752	18.3475	39.6162	-153.481	21.4648	48.4584	-155.348	36.2792	69.0468	-204.807	51.1385	61.428	-208.196	52.9073	91.1076	-197.819	72.2501	72.9817	
35	0.291667	-165.132	84.3565	85.0827	-140.901	76.6815	61.1611	-132.746	66.4651	44.7164	-126.668	50.5031	28.0933	-174.944	81.3661	18.2846	-161.12	78.2825	-5.93764	-150.608	71.7925	-20.2722	-167.391	51.4995	15.6626	-139.418	45.5079	21.5728	-138.249	49.4084	52.748	-167.33	34.4521	27.9371	-141.158	35.1932	41.1936	-145.843	43.6035	65.0367	-169.719	20.7573	37.7349	-148.643	27.5516	50.5293	-153.007	38.3054	70.2467	-205.324	48.4634	58.9864	-210.141	51.7091	88.2527	-198.299	73.0606	74.3163	
36	0.3	-171.514	89.8786	84.6165	-147.252	84.8488	62.3694	-135.997	77.4268	45.8812	-122.495	65.5144	26.458	-173.147	77.5199	18.5664	-159.46	75.516	1.69208	-142.131	70.7695	-13.9679	-166.693	56.6194	18.7834	-137.316	54.1666	21.3741	-137.711	53.4394	54.6357	-164.524	38.4403	30.8614	-139.645	41.8222	40.4364	-147.082	53.5522	69.1882	-163.21	26.7548	40.8263	-145.35	35.6022	51.3868	-152.84	46.6103	74.0642	-202.961	44.1125	63.0648	-209.638	50.3355	87.1448	-201.462	72.0147	73.3378	
37	0.308333	-178.04	89.1562	81.7516	-152.766	89.9017	60.4723	-139.627	84.5298	46.4421	-124.498	74.3396	28.003	-175.236	73.8616	15.1915	-161.393	73.4757	-1.43328	-144.5	73.782	-16.244	-167.212	53.7581	21.5823	-137.025	56.1679	23.7309	-137.699	59.5398	55.1971	-160.388	37.5731	32.9587	-136.055	50.8235	44.5704	-145.521	56.1698	72.4851	-161.688	24.2616	45.0104	-140.43	37.1255	54.6074	-148.198	53.8349	70.8597	-200.341	44.195	66.2356	-207.753	42.5349	90.4853	-204.471	71.2615	71.326	
38	0.316667	-183.757	84.3238	80.7702	-155.608	92.5653	61.7214	-140.573	86.8256	43.9834	-127.359	74.0414	32.8739	-186.008	67.362	18.7313	-174.112	68.6974	-5.44973	-159.458	63.7001	-22.5431	-168.937	53.2524	20.4132	-138.15	56.9263	22.6656	-139.614	63.5448	55.9409	-157.313	38.9887	32.7068	-135.44	51.2156	43.3344	-143.063	59.8988	68.7507	-154.327	26.1974	46.8233	-137.069	39.4598	56.4672	-150.59	54.6169	77.632	-195.549	33.659	68.4603	-204.57	40.896	91.4983	-207.611	63.2579	72.7361	
39	0.325	-186.461	78.5416	80.3128	-161.258	85.9423	63.447	-142.479	82.4795	42.4318	-125.367	68.8475	28.7825	-186.937	58.2076	14.5756	-180.126	58.681	-3.2569	-164.656	58.0607	-25.7624	-164.541	42.757	19.3102	-137.64	54.1469	23.1745	-137.209	61.3472	51.3743	-155.987	35.3068	33.9601	-134.651	49.7323	45.1022	-143.927	57.813	71.7241	-148.092	23.5026	48.3161	-135.903	41.0722	58.3597	-152.186	51.722	76.6445	-195.198	28.9897	68.269	-200.38	31.614	93.5309	-207.049	56.1791	75.1817	
40	0.333333	-188.13	79.9676	78.473	-163.701	84.975	59.9409	-147.021	83.2763	41.8056	-128.548	72.9012	28.5268	-184.872	53.4752	14.6587	-174.222	57.1529	-4.41451	-158.739	56.25	-21.3002	-163.705	40.5241	20.3333	-137.679	52.597	21.0286	-139.82	66.2214	50.3929	-151.608	30.8468	35.6179	-133.175	49.4131	44.3575	-147.069	58.7809	70.2666	-148.869	21.9186	49.145	-133.611	39.5025	59.3952	-150.647	53.162	75.1132	-189.534	20.5402	66.8596	-199.312	27.384	93.9936	-206.601	47.0944	74.6585	
41	0.341667	-191.924	79.202	80.242	-168.435	86.4736	64.4996	-149.996	86.2817	40.6025	-134.985	75.0406	28.2376	-181.405	59.6163	17.9965	-168.685	62.7443	0.748761	-150.635	64.0352	-14.5852	-161.293	43.1778	20.0102	-135.956	57.4441	22.388	-137.552	63.7991	54.7345	-149.945	31.8038	36.1812	-133.922	52.9997	44.9001	-147.222	60.2721	68.9798	-143.021	22.3964	50.4457	-133.329	43.1562	61.1062	-152.058	50.9412	80.7421	-188.941	22.8042	67.3141	-199.161	28.7201	92.4005	-206.691	48.6626	75.3353	
42	0.35	-191.131	74.6967	78.5415	-171.447	89.4399	60.5563	-154.387	81.7391	40.6839	-139.211	76.0753	29.3873	-184.228	58.7821	17.4568	-167.829	61.4662	-3.16723	-150.528	65.6969	-20.4696	-159.489	43.9536	19.6104	-134.59	57.0917	23.3383	-140.45	69.3819	54.7621	-148.598	32.9386	36.9206	-130.584	51.8208	48.9779	-146.393	59.5713	70.2442	-141.453	23.5695	50.945	-132.768	45.2016	60.7776	-151.166	52.3832	78.0059	-187.847	21.776	69.7804	-196.329	25.5018	94.4375	-204.846	44.9117	75.6514	
43	0.358333	-193.313	70.461	79.3652	-173.022	80.2224	59.6975	-158.022	80.9024	42.5701	-138.167	72.8581	25.8534	-184.901	44.8972	17.3245	-179.203	50.208	-3.09848	-164.825	51.292	-22.1187	-161.242	35.9262	23.2444	-136.321	56.9698	22.1895	-138.016	64.8802	51.5506	-146.173	31.5652	35.6744	-131.53	49.4661	44.9362	-144.118	55.8798	72.0079	-140.844	23.716	49.5408	-131.779	42.693	59.9984	-148.246	50.9468	76.5521	-185.389	16.7589	68.2315	-192.545	17.1973	96.7971	-204.812	39.6193	76.8874	
44	0.366667	-192.772	61.279	82.4536	-173.047	77.8602	59.4298	-156.988	76.7114	36.9553	-140.927	66.8899	27.0892	-188.263	39.5284	20.1245	-181.716	38.6094	-1.38108	-167.745	39.2986	-24.3275	-163.85	31.7443	24.1288	-137.801	46.8878	20.7531	-138.527	62.301	51.1915	-144.391	25.5169	36.8759	-131.399	44.7588	44.8982	-143.884	52.2102	71.989	-142.303	15.4333	52.664	-131.82	39.4533	62.1049	-152.699	46.8214	76.8655	-183.538	10.8922	72.3869	-193.572	16.0125	96.2648	-205.066	32.7728	74.2857	
